<svg width="29" height="20" viewBox="0 0 29 20" fill="none" xmlns="http://www.w3.org/2000/svg">
<g filter="url(#filter0_d_9_1443)">
<path fill-rule="evenodd" clip-rule="evenodd" d="M23.4865 1.37968C23.6253 0.985106 23.4865 0.698125 22.8719 0.698125H20.8298C20.3144 0.698125 20.0764 0.949207 19.9377 1.21829C19.9377 1.21829 18.8869 3.51408 17.4198 5.00273C16.9439 5.4332 16.7259 5.57669 16.4682 5.57669C16.3293 5.57669 16.1509 5.4332 16.1509 5.03862V1.36173C16.1509 0.895411 15.9923 0.680176 15.5561 0.680176H12.3444C12.0271 0.680176 11.8289 0.895411 11.8289 1.11065C11.8289 1.55907 12.5624 1.66666 12.6417 2.92217V5.64843C12.6417 6.24034 12.5228 6.34793 12.2651 6.34793C11.5711 6.34793 9.88596 4.03419 8.87484 1.39763C8.67655 0.877462 8.47831 0.680176 7.96286 0.680176H5.90093C5.30617 0.680176 5.20703 0.93131 5.20703 1.20034C5.20703 1.68461 5.90093 4.12389 8.43863 7.35236C10.1239 9.55846 12.5228 10.7422 14.6838 10.7422C15.9923 10.7422 16.1509 10.4732 16.1509 10.0248V8.3568C16.1509 7.81868 16.2699 7.72904 16.6862 7.72904C16.9836 7.72904 17.5189 7.87248 18.7283 8.9307C20.1161 10.1862 20.354 10.7602 21.1272 10.7602H23.1693C23.764 10.7602 24.0416 10.4911 23.883 9.97098C23.7046 9.45087 23.0305 8.69757 22.1582 7.80073C21.6823 7.29857 20.9686 6.74256 20.7505 6.47347C20.4531 6.1148 20.5324 5.97131 20.7505 5.64843C20.7307 5.64843 23.2287 2.45585 23.4865 1.37968Z" fill="white" fill-opacity="0.8" shape-rendering="crispEdges"/>
<path fill-rule="evenodd" clip-rule="evenodd" d="M23.4865 1.37968C23.6253 0.985106 23.4865 0.698125 22.8719 0.698125H20.8298C20.3144 0.698125 20.0764 0.949207 19.9377 1.21829C19.9377 1.21829 18.8869 3.51408 17.4198 5.00273C16.9439 5.4332 16.7259 5.57669 16.4682 5.57669C16.3293 5.57669 16.1509 5.4332 16.1509 5.03862V1.36173C16.1509 0.895411 15.9923 0.680176 15.5561 0.680176H12.3444C12.0271 0.680176 11.8289 0.895411 11.8289 1.11065C11.8289 1.55907 12.5624 1.66666 12.6417 2.92217V5.64843C12.6417 6.24034 12.5228 6.34793 12.2651 6.34793C11.5711 6.34793 9.88596 4.03419 8.87484 1.39763C8.67655 0.877462 8.47831 0.680176 7.96286 0.680176H5.90093C5.30617 0.680176 5.20703 0.93131 5.20703 1.20034C5.20703 1.68461 5.90093 4.12389 8.43863 7.35236C10.1239 9.55846 12.5228 10.7422 14.6838 10.7422C15.9923 10.7422 16.1509 10.4732 16.1509 10.0248V8.3568C16.1509 7.81868 16.2699 7.72904 16.6862 7.72904C16.9836 7.72904 17.5189 7.87248 18.7283 8.9307C20.1161 10.1862 20.354 10.7602 21.1272 10.7602H23.1693C23.764 10.7602 24.0416 10.4911 23.883 9.97098C23.7046 9.45087 23.0305 8.69757 22.1582 7.80073C21.6823 7.29857 20.9686 6.74256 20.7505 6.47347C20.4531 6.1148 20.5324 5.97131 20.7505 5.64843C20.7307 5.64843 23.2287 2.45585 23.4865 1.37968Z" fill="black" fill-opacity="0.2" shape-rendering="crispEdges"/>
<path fill-rule="evenodd" clip-rule="evenodd" d="M23.4865 1.37968C23.6253 0.985106 23.4865 0.698125 22.8719 0.698125H20.8298C20.3144 0.698125 20.0764 0.949207 19.9377 1.21829C19.9377 1.21829 18.8869 3.51408 17.4198 5.00273C16.9439 5.4332 16.7259 5.57669 16.4682 5.57669C16.3293 5.57669 16.1509 5.4332 16.1509 5.03862V1.36173C16.1509 0.895411 15.9923 0.680176 15.5561 0.680176H12.3444C12.0271 0.680176 11.8289 0.895411 11.8289 1.11065C11.8289 1.55907 12.5624 1.66666 12.6417 2.92217V5.64843C12.6417 6.24034 12.5228 6.34793 12.2651 6.34793C11.5711 6.34793 9.88596 4.03419 8.87484 1.39763C8.67655 0.877462 8.47831 0.680176 7.96286 0.680176H5.90093C5.30617 0.680176 5.20703 0.93131 5.20703 1.20034C5.20703 1.68461 5.90093 4.12389 8.43863 7.35236C10.1239 9.55846 12.5228 10.7422 14.6838 10.7422C15.9923 10.7422 16.1509 10.4732 16.1509 10.0248V8.3568C16.1509 7.81868 16.2699 7.72904 16.6862 7.72904C16.9836 7.72904 17.5189 7.87248 18.7283 8.9307C20.1161 10.1862 20.354 10.7602 21.1272 10.7602H23.1693C23.764 10.7602 24.0416 10.4911 23.883 9.97098C23.7046 9.45087 23.0305 8.69757 22.1582 7.80073C21.6823 7.29857 20.9686 6.74256 20.7505 6.47347C20.4531 6.1148 20.5324 5.97131 20.7505 5.64843C20.7307 5.64843 23.2287 2.45585 23.4865 1.37968Z" stroke="black" shape-rendering="crispEdges"/>
</g>
<defs>
<filter id="filter0_d_9_1443" x="0.707031" y="0.180176" width="27.7188" height="19.0801" filterUnits="userSpaceOnUse" color-interpolation-filters="sRGB">
<feFlood flood-opacity="0" result="BackgroundImageFix"/>
<feColorMatrix in="SourceAlpha" type="matrix" values="0 0 0 0 0 0 0 0 0 0 0 0 0 0 0 0 0 0 127 0" result="hardAlpha"/>
<feOffset dy="4"/>
<feGaussianBlur stdDeviation="2"/>
<feComposite in2="hardAlpha" operator="out"/>
<feColorMatrix type="matrix" values="0 0 0 0 0 0 0 0 0 0 0 0 0 0 0 0 0 0 0.25 0"/>
<feBlend mode="normal" in2="BackgroundImageFix" result="effect1_dropShadow_9_1443"/>
<feBlend mode="normal" in="SourceGraphic" in2="effect1_dropShadow_9_1443" result="shape"/>
</filter>
</defs>
</svg>
