<svg width="29" height="29" viewBox="0 0 29 29" fill="none" xmlns="http://www.w3.org/2000/svg">
<rect width="29" height="29" fill="#E5E5E5"/>
<g id="1024_11" clip-path="url(#clip0_211_746)">
<rect width="1024" height="700" transform="translate(-693 -165)" fill="#F5F5F5"/>
<path id="Body 11" d="M-38.6582 37H-39.8652L-43.8262 32.6582V37H-44.8223V28.4336H-43.8262V32.582L-39.9648 28.4336H-38.8223L-42.6133 32.5938L-38.6582 37ZM-32.0781 33.7832C-32.0781 34.8301 -32.3418 35.6484 -32.8691 36.2383C-33.3965 36.8242 -34.125 37.1172 -35.0547 37.1172C-35.6289 37.1172 -36.1387 36.9824 -36.584 36.7129C-37.0293 36.4434 -37.373 36.0566 -37.6152 35.5527C-37.8574 35.0488 -37.9785 34.459 -37.9785 33.7832C-37.9785 32.7363 -37.7168 31.9219 -37.1934 31.3398C-36.6699 30.7539 -35.9434 30.4609 -35.0137 30.4609C-34.1152 30.4609 -33.4023 30.7598 -32.875 31.3574C-32.3438 31.9551 -32.0781 32.7637 -32.0781 33.7832ZM-36.9707 33.7832C-36.9707 34.6035 -36.8066 35.2285 -36.4785 35.6582C-36.1504 36.0879 -35.668 36.3027 -35.0312 36.3027C-34.3945 36.3027 -33.9121 36.0898 -33.584 35.6641C-33.252 35.2344 -33.0859 34.6074 -33.0859 33.7832C-33.0859 32.9668 -33.252 32.3477 -33.584 31.9258C-33.9121 31.5 -34.3984 31.2871 -35.043 31.2871C-35.6797 31.2871 -36.1602 31.4961 -36.4844 31.9141C-36.8086 32.332 -36.9707 32.9551 -36.9707 33.7832ZM-29.3945 30.5781V33.2676H-25.7969V30.5781H-24.8242V37H-25.7969V34.1055H-29.3945V37H-30.3672V30.5781H-29.3945ZM-18.4316 31.4102H-20.5176V37H-21.4902V31.4102H-23.5527V30.5781H-18.4316V31.4102ZM-13.2109 37L-13.4043 36.0859H-13.4512C-13.7715 36.4883 -14.0918 36.7617 -14.4121 36.9062C-14.7285 37.0469 -15.125 37.1172 -15.6016 37.1172C-16.2383 37.1172 -16.7383 36.9531 -17.1016 36.625C-17.4609 36.2969 -17.6406 35.8301 -17.6406 35.2246C-17.6406 33.9277 -16.6035 33.248 -14.5293 33.1855L-13.4395 33.1504V32.752C-13.4395 32.248 -13.5488 31.877 -13.7676 31.6387C-13.9824 31.3965 -14.3281 31.2754 -14.8047 31.2754C-15.3398 31.2754 -15.9453 31.4395 -16.6211 31.7676L-16.9199 31.0234C-16.6035 30.8516 -16.2578 30.7168 -15.8828 30.6191C-15.5039 30.5215 -15.125 30.4727 -14.7461 30.4727C-13.9805 30.4727 -13.4141 30.6426 -13.0469 30.9824C-12.6758 31.3223 -12.4902 31.8672 -12.4902 32.6172V37H-13.2109ZM-15.4082 36.3145C-14.8027 36.3145 -14.3281 36.1484 -13.9844 35.8164C-13.6367 35.4844 -13.4629 35.0195 -13.4629 34.4219V33.8418L-14.4355 33.8828C-15.209 33.9102 -15.7676 34.0312 -16.1113 34.2461C-16.4512 34.457 -16.6211 34.7871 -16.6211 35.2363C-16.6211 35.5879 -16.5156 35.8555 -16.3047 36.0391C-16.0898 36.2227 -15.791 36.3145 -15.4082 36.3145ZM-6.73633 30.5781H-5.66992L-8.44141 33.6777L-5.44141 37H-6.57812L-9.50781 33.748V37H-10.4805V30.5781H-9.50781V33.7012L-6.73633 30.5781ZM0.0839844 31.4102H-2.00195V37H-2.97461V31.4102H-5.03711V30.5781H0.0839844V31.4102ZM2.32812 33.2324H4.08008C4.89648 33.2324 5.5 33.3848 5.89062 33.6895C6.28516 33.9902 6.48242 34.4414 6.48242 35.043C6.48242 35.6875 6.27344 36.1758 5.85547 36.5078C5.44141 36.8359 4.83008 37 4.02148 37H1.35547V30.5781H2.32812V33.2324ZM8.5332 37H7.56055V30.5781H8.5332V37ZM2.32812 34.0703V36.1855H3.97461C5.00586 36.1855 5.52148 35.8242 5.52148 35.1016C5.52148 34.7422 5.40234 34.4805 5.16406 34.3164C4.92578 34.1523 4.51953 34.0703 3.94531 34.0703H2.32812Z" fill="#B0B0B0"/>
<rect id="Rectangle 161" opacity="0.6" x="-693" y="-165" width="1024" height="700" fill="#333333"/>
<g id="Group 208">
<g id="Rectangle 162" filter="url(#filter0_d_211_746)">
<rect x="-406" y="-15" width="450" height="400" fill="white"/>
</g>
<g id="Frame 339">
<path id="Union" fill-rule="evenodd" clip-rule="evenodd" d="M22.2332 7.73333L21.2665 6.76666L14.4998 13.5334L7.73318 6.7667L6.76652 7.73336L13.5332 14.5L6.76654 21.2667L7.73321 22.2333L14.4998 15.4667L21.2665 22.2334L22.2332 21.2667L15.4665 14.5L22.2332 7.73333Z" fill="#B0B0B0"/>
</g>
</g>
</g>
<defs>
<filter id="filter0_d_211_746" x="-441" y="-50" width="520" height="470" filterUnits="userSpaceOnUse" color-interpolation-filters="sRGB">
<feFlood flood-opacity="0" result="BackgroundImageFix"/>
<feColorMatrix in="SourceAlpha" type="matrix" values="0 0 0 0 0 0 0 0 0 0 0 0 0 0 0 0 0 0 127 0" result="hardAlpha"/>
<feOffset/>
<feGaussianBlur stdDeviation="17.5"/>
<feColorMatrix type="matrix" values="0 0 0 0 0 0 0 0 0 0 0 0 0 0 0 0 0 0 0.15 0"/>
<feBlend mode="normal" in2="BackgroundImageFix" result="effect1_dropShadow_211_746"/>
<feBlend mode="normal" in="SourceGraphic" in2="effect1_dropShadow_211_746" result="shape"/>
</filter>
<clipPath id="clip0_211_746">
<rect width="1024" height="700" fill="white" transform="translate(-693 -165)"/>
</clipPath>
</defs>
</svg>
